<svg width="69" height="70" viewBox="0 0 69 70" fill="none" xmlns="http://www.w3.org/2000/svg">
<path d="M49.6356 63.0508C49.3128 63.0508 49.0303 62.9297 48.7882 62.6876C48.5461 62.4858 48.425 62.2033 48.425 61.8401C48.425 61.1541 48.8689 60.7304 49.7567 60.569C51.3709 60.2461 52.8237 59.6206 54.115 58.6925C55.4064 57.7643 56.052 56.3317 56.052 54.3947V42.712C56.052 39.6854 57.3636 37.1027 59.9866 34.9639C58.8163 34.0761 57.868 32.9865 57.1416 31.6951C56.4152 30.3634 56.052 28.8905 56.052 27.2763V14.5645C56.052 12.7889 55.4467 11.4169 54.2361 10.4484C53.0254 9.43948 51.5323 8.75345 49.7567 8.39026C48.8689 8.26919 48.425 7.84547 48.425 7.11909C48.425 6.71554 48.5662 6.41288 48.8487 6.2111C49.1312 5.96897 49.4742 5.86809 49.8778 5.90844C51.9359 6.27163 53.8931 7.15944 55.7494 8.57186C57.6461 9.94392 58.5944 11.9415 58.5944 14.5645V27.3368C58.5944 28.951 58.9979 30.3231 59.805 31.453C60.6525 32.5426 61.7219 33.3295 63.0132 33.8138C63.5782 34.0962 63.8607 34.4796 63.8607 34.9639C63.8607 35.2463 63.8002 35.4683 63.6791 35.6297C63.558 35.7911 63.3563 35.9526 63.0738 36.114C61.3789 36.9614 60.2086 37.8896 59.5629 38.8985C58.9172 39.9073 58.5944 41.1583 58.5944 42.6514V54.3947C58.5944 56.2106 58.09 57.7441 57.0811 58.9951C56.1126 60.2461 54.9625 61.1945 53.6308 61.8401C52.2991 62.4858 51.0279 62.8894 49.8172 63.0508H49.6356Z" fill="#EF0E47"/>
<path d="M49.6356 63.0508C49.3128 63.0508 49.0303 62.9297 48.7882 62.6876C48.5461 62.4858 48.425 62.2033 48.425 61.8401C48.425 61.1541 48.8689 60.7304 49.7567 60.569C51.3709 60.2461 52.8237 59.6206 54.115 58.6925C55.4064 57.7643 56.052 56.3317 56.052 54.3947V42.712C56.052 39.6854 57.3636 37.1027 59.9866 34.9639C58.8163 34.0761 57.868 32.9865 57.1416 31.6951C56.4152 30.3634 56.052 28.8905 56.052 27.2763V14.5645C56.052 12.7889 55.4467 11.4169 54.2361 10.4484C53.0254 9.43948 51.5323 8.75345 49.7567 8.39026C48.8689 8.26919 48.425 7.84547 48.425 7.11909C48.425 6.71554 48.5662 6.41288 48.8487 6.2111C49.1312 5.96897 49.4742 5.86809 49.8778 5.90844C51.9359 6.27163 53.8931 7.15944 55.7494 8.57186C57.6461 9.94392 58.5944 11.9415 58.5944 14.5645V27.3368C58.5944 28.951 58.9979 30.3231 59.805 31.453C60.6525 32.5426 61.7219 33.3295 63.0132 33.8138C63.5782 34.0962 63.8607 34.4796 63.8607 34.9639C63.8607 35.2463 63.8002 35.4683 63.6791 35.6297C63.558 35.7911 63.3563 35.9526 63.0738 36.114C61.3789 36.9614 60.2086 37.8896 59.5629 38.8985C58.9172 39.9073 58.5944 41.1583 58.5944 42.6514V54.3947C58.5944 56.2106 58.09 57.7441 57.0811 58.9951C56.1126 60.2461 54.9625 61.1945 53.6308 61.8401C52.2991 62.4858 51.0279 62.8894 49.8172 63.0508H49.6356Z" fill="#222222"/>
<path d="M26.8384 15.0237C26.8384 13.7838 27.7865 12.4711 28.9533 11.7418C30.1202 11.0125 31.433 10.3561 32.5269 9.3351C34.1314 8.02236 33.8397 6.56375 33.9855 6.56375C34.1314 6.56375 33.7667 7.94943 35.4441 9.3351C36.8298 10.4798 37.4522 10.7002 39.0906 11.7418C40.3305 12.617 41.2786 13.527 41.2786 15.0237C41.2786 18.0867 37.4229 19.8371 34.4231 19.8371C31.4233 19.8371 28.1921 18.9619 25.3068 18.9619C24.6504 18.9619 22.2766 19.0629 20.2053 20.8861C18.134 22.7094 17.3574 24.5046 17.3574 27.3489C17.3574 30.1932 19.2837 32.0893 20.7122 33.0374C22.1407 33.9855 24.0956 34.2773 25.4527 34.2773C25.5241 34.2773 25.5955 34.2773 25.5955 34.2773C25.5955 34.2773 25.5955 34.2773 25.5955 34.2773C35.0065 34.2773 33.0495 21.1827 42.1917 21.1827C42.2631 21.1827 40.4061 21.1827 42.6202 21.1827C44.8344 21.1827 46.968 22.2437 48.2536 23.7023C49.5393 25.1609 50.5407 26.5277 50.5407 29.2451C50.5407 31.9624 49.0821 33.9585 47.98 34.9788C46.8779 35.9991 44.9028 37.0254 43.5457 37.3403C42.1887 37.6552 40.4896 38.2515 34.2043 38.2515C30.1551 38.2515 25.4537 37.389 22.621 36.7753C21.6319 36.561 20.8068 37.6119 21.2719 38.5107L32.8868 60.9564C33.3198 61.7933 34.5149 61.7983 34.9549 60.965L40.768 49.9573" stroke="#222222" stroke-width="2.18791" stroke-linecap="round"/>
<path d="M17.978 63.0508C16.7674 62.8894 15.4962 62.4858 14.1645 61.8401C12.8732 61.1945 11.7432 60.2461 10.7747 58.9951C9.80621 57.7845 9.32195 56.251 9.32195 54.3947V41.6829C9.32195 40.1091 8.89822 38.7572 8.05077 37.6273C7.24368 36.457 6.19445 35.6297 4.9031 35.1455C4.33814 34.9437 4.05565 34.5603 4.05565 33.9954C4.05565 33.4707 4.31796 33.1075 4.84257 32.9058C6.53747 32.0583 7.70776 31.1302 8.35343 30.1213C8.99911 29.0721 9.32195 27.8211 9.32195 26.3683V14.5645C9.32195 11.9415 10.2501 9.92374 12.1064 8.51133C14.0031 7.09891 15.9805 6.23128 18.0386 5.90844H18.1596C18.5228 5.90844 18.8255 6.02951 19.0676 6.27163C19.3097 6.51376 19.4308 6.79625 19.4308 7.11909C19.4308 7.84547 19.0071 8.26919 18.1596 8.39026C16.5454 8.67274 15.0927 9.29824 13.8013 10.2668C12.51 11.2353 11.8643 12.6679 11.8643 14.5645V26.3078C11.8643 29.3747 10.5326 31.9373 7.86918 33.9954C9.07982 34.8832 10.0483 35.9929 10.7747 37.3246C11.5011 38.6563 11.8643 40.1293 11.8643 41.7435V54.3947C11.8643 56.3317 12.51 57.7643 13.8013 58.6925C15.0927 59.661 16.5454 60.2865 18.1596 60.569C19.0071 60.7707 19.4308 61.1945 19.4308 61.8401C19.4308 62.2437 19.2896 62.5665 19.0071 62.8086C18.7246 63.0508 18.3816 63.1315 17.978 63.0508Z" fill="#EF0E47"/>
<path d="M17.978 63.0508C16.7674 62.8894 15.4962 62.4858 14.1645 61.8401C12.8732 61.1945 11.7432 60.2461 10.7747 58.9951C9.80621 57.7845 9.32195 56.251 9.32195 54.3947V41.6829C9.32195 40.1091 8.89822 38.7572 8.05077 37.6273C7.24368 36.457 6.19445 35.6297 4.9031 35.1455C4.33814 34.9437 4.05565 34.5603 4.05565 33.9954C4.05565 33.4707 4.31796 33.1075 4.84257 32.9058C6.53747 32.0583 7.70776 31.1302 8.35343 30.1213C8.99911 29.0721 9.32195 27.8211 9.32195 26.3683V14.5645C9.32195 11.9415 10.2501 9.92374 12.1064 8.51133C14.0031 7.09891 15.9805 6.23128 18.0386 5.90844H18.1596C18.5228 5.90844 18.8255 6.02951 19.0676 6.27163C19.3097 6.51376 19.4308 6.79625 19.4308 7.11909C19.4308 7.84547 19.0071 8.26919 18.1596 8.39026C16.5454 8.67274 15.0927 9.29824 13.8013 10.2668C12.51 11.2353 11.8643 12.6679 11.8643 14.5645V26.3078C11.8643 29.3747 10.5326 31.9373 7.86918 33.9954C9.07982 34.8832 10.0483 35.9929 10.7747 37.3246C11.5011 38.6563 11.8643 40.1293 11.8643 41.7435V54.3947C11.8643 56.3317 12.51 57.7643 13.8013 58.6925C15.0927 59.661 16.5454 60.2865 18.1596 60.569C19.0071 60.7707 19.4308 61.1945 19.4308 61.8401C19.4308 62.2437 19.2896 62.5665 19.0071 62.8086C18.7246 63.0508 18.3816 63.1315 17.978 63.0508Z" fill="#222222"/>
</svg>
