<svg width="26" height="25" viewBox="0 0 26 25" fill="none" xmlns="http://www.w3.org/2000/svg">
<g id="logos:redux" clip-path="url(#clip0_490_40769)">
<path id="Vector" d="M17.9093 17.3879C18.8386 17.2917 19.5435 16.4906 19.5114 15.5293C19.4795 14.568 18.6783 13.7989 17.717 13.7989H17.653C16.6596 13.831 15.8906 14.6641 15.9227 15.6574C15.9547 16.1381 16.1469 16.5547 16.4353 16.8431C15.3459 18.9901 13.6796 20.5602 11.1803 21.874C9.482 22.7713 7.71967 23.0917 5.95735 22.8675C4.51538 22.6752 3.39387 22.0343 2.68882 20.9768C1.66351 19.4066 1.56741 17.7083 2.43259 16.01C3.04144 14.7923 4.00262 13.895 4.61148 13.4464C4.48331 13.0298 4.29102 12.3249 4.19492 11.8122C-0.451342 15.1768 0.0293465 19.7271 1.43925 21.874C2.49662 23.4763 4.64354 24.4697 7.01472 24.4697C7.65554 24.4697 8.29636 24.4055 8.93728 24.2454C13.0388 23.4443 16.147 21.0088 17.9093 17.3879ZM23.549 13.4144C21.1136 10.5624 17.5249 8.99232 13.4233 8.99232H12.9107C12.6223 8.41553 12.0134 8.03094 11.3405 8.03094H11.2764C10.2831 8.063 9.51417 8.89612 9.54613 9.88956C9.5782 10.8508 10.3792 11.6199 11.3405 11.6199H11.4046C12.1095 11.5879 12.7184 11.1392 12.9747 10.5304H13.5515C15.9868 10.5304 18.2938 11.2353 20.3767 12.6133C21.9788 13.6707 23.1324 15.0487 23.7732 16.7149C24.3179 18.0608 24.2859 19.3746 23.7091 20.4962C22.8119 22.1945 21.3059 23.1238 19.3192 23.1238C18.0375 23.1238 16.8199 22.7392 16.179 22.4508C15.8266 22.7713 15.1856 23.2839 14.737 23.6045C16.115 24.2453 17.5249 24.5978 18.8706 24.5978C21.9468 24.5978 24.2218 22.8994 25.087 21.2011C26.0162 19.3425 25.9521 16.1381 23.549 13.4144ZM7.27105 17.9325C7.30312 18.8939 8.10417 19.6629 9.06544 19.6629H9.12958C10.1229 19.6309 10.8919 18.7977 10.8598 17.8043C10.8279 16.843 10.0267 16.074 9.06544 16.074H9.00141C8.93728 16.074 8.84108 16.074 8.77715 16.106C7.46335 13.927 6.91862 11.5558 7.11092 8.99222C7.23899 7.06956 7.8799 5.40323 9.00141 4.0253C9.93062 2.83966 11.725 2.26287 12.9427 2.23091C16.3392 2.16677 17.7811 6.39658 17.8773 8.09497C18.2938 8.19107 18.9988 8.41543 19.4795 8.57566C19.0949 3.38458 15.8906 0.692841 12.8146 0.692841C9.93062 0.692841 7.27105 2.77573 6.21358 5.85196C4.73964 9.9536 5.70092 13.895 7.49531 17.0033C7.33518 17.2276 7.23899 17.58 7.27105 17.9325Z" fill="#222222"/>
</g>
<defs>
<clipPath id="clip0_490_40769">
<rect width="25.1803" height="24" fill="white" transform="translate(0.462036 0.692841)"/>
</clipPath>
</defs>
</svg>
