<svg width="72" height="72" viewBox="0 0 72 72" fill="none" xmlns="http://www.w3.org/2000/svg">
<rect width="72" height="72" rx="36" fill="#8C55E9"/>
<g clip-path="url(#clip0_490_40528)">
<path d="M47.0096 31.051C47.2066 30.3596 47.2493 29.6334 47.1347 28.9237C47.0201 28.214 46.7509 27.5382 46.3462 26.944C45.9416 26.3498 45.4113 25.8518 44.7929 25.4852C44.1745 25.1186 43.4831 24.8923 42.7676 24.8224C42.4805 23.9987 41.9444 23.2845 41.2336 22.7789C40.5228 22.2732 39.6723 22.001 38.8 22C37.7634 22.0035 36.7653 22.3928 36 23.092C35.2347 22.3928 34.2366 22.0035 33.2 22C31.3786 22 29.826 23.1634 29.245 24.821C28.5282 24.8891 27.8353 25.1142 27.2152 25.4802C26.5952 25.8461 26.0633 26.3441 25.6572 26.9386C25.2512 27.5332 24.981 28.2098 24.8657 28.9205C24.7505 29.6312 24.793 30.3586 24.9904 31.051C24.0916 31.5292 23.3391 32.2417 22.8126 33.113C22.2861 33.9844 22.0053 34.982 22 36C22 37.505 22.5992 38.9204 23.6408 39.9648C23.4814 40.4953 23.4003 41.0461 23.4 41.6C23.4 44.3398 25.3768 46.626 28.0284 47.1076C28.4177 47.9679 29.0462 48.6981 29.8391 49.211C30.632 49.7238 31.5557 49.9977 32.5 50C33.8706 50 35.1096 49.4302 36 48.5174C36.4545 48.9862 36.9984 49.359 37.5996 49.6137C38.2008 49.8683 38.8471 49.9997 39.5 50C40.4426 49.9983 41.3648 49.7254 42.1567 49.2141C42.9485 48.7027 43.5766 47.9744 43.966 47.116C44.7471 46.9783 45.4902 46.6765 46.1461 46.2304C46.802 45.7844 47.3558 45.2043 47.771 44.5285C48.1862 43.8526 48.4533 43.0964 48.5547 42.3097C48.6561 41.5231 48.5894 40.7238 48.3592 39.9648C48.8797 39.4441 49.2926 38.826 49.5741 38.1457C49.8556 37.4654 50.0003 36.7363 50 36C49.9947 34.982 49.7139 33.9844 49.1874 33.113C48.6609 32.2417 47.9084 31.5292 47.0096 31.051ZM32.5 47.2C31.5046 47.2 30.638 46.4944 30.442 45.5228L30.1452 44.4H29C27.4558 44.4 26.2 43.1442 26.2 41.6C26.2 41.1072 26.319 40.6452 26.5542 40.2266L27.1926 39.0842L26.095 38.3702C25.6985 38.1146 25.3723 37.7638 25.1461 37.3498C24.9199 36.9358 24.8009 36.4718 24.8 36C24.8 34.6322 25.8122 33.4464 27.1548 33.2392L29.525 32.8752L28.0424 30.9908C27.7784 30.6504 27.6253 30.2372 27.6038 29.8069C27.5823 29.3767 27.6934 28.9502 27.9222 28.5852C28.151 28.2202 28.4863 27.9343 28.8829 27.7661C29.2795 27.5979 29.7182 27.5556 30.1396 27.6448L31.8 27.8898V26.2C31.8 25.8287 31.9475 25.4726 32.2101 25.2101C32.4726 24.9475 32.8287 24.8 33.2 24.8C33.5713 24.8 33.9274 24.9475 34.1899 25.2101C34.4525 25.4726 34.6 25.8287 34.6 26.2V45.1C34.6 46.2578 33.6578 47.2 32.5 47.2ZM45.905 38.3688L44.8074 39.0828L45.4458 40.2252C45.681 40.6452 45.8 41.1072 45.8 41.6C45.8 43.1442 44.5442 44.4 42.93 44.4H41.7848L41.558 45.5228C41.4601 45.9964 41.202 46.4217 40.8272 46.7272C40.4523 47.0327 39.9836 47.1997 39.5 47.2C38.3422 47.2 37.4 46.2578 37.4 45.1V26.2C37.4 25.4272 38.0272 24.8 38.8 24.8C39.5728 24.8 40.2 25.4272 40.2 26.27V27.9598L41.8604 27.6448C42.2818 27.5556 42.7205 27.5979 43.1171 27.7661C43.5137 27.9343 43.849 28.2202 44.0778 28.5852C44.3066 28.9502 44.4177 29.3767 44.3962 29.8069C44.3747 30.2372 44.2216 30.6504 43.9576 30.9908L42.475 32.8766L44.8452 33.2406C45.5011 33.3468 46.0979 33.6826 46.5292 34.188C46.9605 34.6934 47.1983 35.3356 47.2 36C47.2 36.9562 46.7156 37.841 45.905 38.3688Z" fill="#F8F8F8"/>
</g>
<defs>
<clipPath id="clip0_490_40528">
<rect width="28" height="28" fill="white" transform="translate(22 22)"/>
</clipPath>
</defs>
</svg>
