<svg width="32" height="32" viewBox="0 0 32 32" fill="none" xmlns="http://www.w3.org/2000/svg">
<g id="mdi:tick-decagram" clip-path="url(#clip0_507_1004)">
<path id="Vector" d="M32 15.9924L28.4509 11.742L28.9455 6.11562L23.6945 4.86192L20.9455 0L16 2.2322L11.0545 0L8.30545 4.86192L3.05455 6.10033L3.54909 11.7267L0 15.9924L3.54909 20.2427L3.05455 25.8844L8.30545 27.1381L11.0545 32L16 29.7525L20.9455 31.9847L23.6945 27.1228L28.9455 25.8691L28.4509 20.2427L32 15.9924ZM13.0909 23.6369L7.27273 17.5213L9.32364 15.3655L13.0909 19.3101L22.6764 9.23459L24.7273 11.4056L13.0909 23.6369Z" fill="#222222"/>
</g>
<defs>
<clipPath id="clip0_507_1004">
<rect width="32" height="32" fill="white"/>
</clipPath>
</defs>
</svg>
