<svg width="23" height="25" viewBox="0 0 23 25" fill="none" xmlns="http://www.w3.org/2000/svg">
<g id="logos:jest" clip-path="url(#clip0_490_40753)">
<path id="Vector" d="M21.0198 12.4774C21.0198 11.2471 20.0223 10.2496 18.7919 10.2496C18.7127 10.2496 18.6347 10.2538 18.5577 10.262L21.6177 1.23695H8.61389L11.6696 10.2541C11.6245 10.2512 11.5794 10.2498 11.5342 10.2497C10.3038 10.2497 9.30633 11.247 9.30633 12.4775C9.30633 13.472 9.95815 14.3141 10.8577 14.6005C10.3826 15.4235 9.78472 16.1648 9.10594 16.8052C8.18291 17.6759 7.12657 18.3362 5.98407 18.743C4.62379 18.0442 3.98147 16.4902 4.56103 15.1276C4.6265 14.9737 4.69333 14.8177 4.75719 14.6624C5.74263 14.4325 6.47704 13.549 6.47704 12.4935C6.47704 11.263 5.47956 10.2656 4.24912 10.2656C3.01867 10.2656 2.02127 11.263 2.02127 12.4935C2.02127 13.248 2.39662 13.9145 2.9705 14.3175C2.41909 15.5729 1.60852 16.8869 1.35597 18.4097C1.0533 20.2348 1.35495 22.1721 2.93344 23.2661C6.6096 25.814 10.6 21.6866 14.8074 20.649C16.3322 20.2731 18.006 20.3337 19.3494 19.5556C20.3583 18.9713 21.0234 18.0029 21.2121 16.9158C21.3987 15.8418 21.1268 14.7725 20.5016 13.9055C20.837 13.5053 21.0205 12.9996 21.0198 12.4774Z" fill="#222222"/>
<path id="Vector_2" d="M20.6763 16.8227C20.5124 17.7666 19.9295 18.591 19.077 19.0848C18.2823 19.5451 17.33 19.6824 16.3217 19.8278C15.7815 19.9056 15.223 19.9863 14.6774 20.1208C13.2346 20.4766 11.8372 21.1707 10.4859 21.8419C7.78147 23.1852 5.44593 24.3452 3.24369 22.8189C1.63052 21.7009 1.70498 19.6323 1.89291 18.4988C2.0671 17.4486 2.53803 16.4814 2.99335 15.546C3.07092 15.3871 3.14787 15.2278 3.22419 15.0682C3.45371 15.16 3.69455 15.2204 3.9402 15.2479C3.47665 16.7777 4.20564 18.4411 5.73562 19.227L5.94509 19.3346L6.16677 19.2557C7.37636 18.8249 8.49096 18.1337 9.47954 17.2009C10.1185 16.5981 10.668 15.9311 11.1196 15.2184C11.2569 15.2391 11.3955 15.2495 11.5344 15.2495C12.9387 15.2495 14.1015 14.1997 14.2815 12.8438C14.8563 12.8228 15.4668 12.8226 16.0449 12.8436C16.2247 14.1997 17.3878 15.2496 18.792 15.2496C19.3792 15.2496 19.9239 15.0655 20.3726 14.7529C20.6841 15.3906 20.8003 16.108 20.6763 16.8227ZM4.2494 10.8097C5.17786 10.8097 5.93313 11.5651 5.93313 12.4935C5.93339 12.8149 5.84109 13.1296 5.66727 13.3999C5.38741 13.8364 4.91165 14.1356 4.36508 14.1729C4.32683 14.1754 4.28824 14.1773 4.2494 14.1773C4.04248 14.1773 3.84429 14.1395 3.66102 14.071C3.29193 13.9322 2.98285 13.669 2.7871 13.3267C2.64174 13.0731 2.56537 12.7858 2.56559 12.4935C2.56559 11.5651 3.32095 10.8097 4.2494 10.8097ZM9.85073 12.4775C9.85073 11.634 10.4743 10.9335 11.2845 10.8124C11.3661 10.8001 11.4496 10.7938 11.5345 10.7938C12.0743 10.7938 12.5548 11.0495 12.863 11.4457C12.9402 11.5445 13.0062 11.6516 13.0596 11.765C13.1643 11.9879 13.2184 12.2312 13.2182 12.4775C13.2182 12.6121 13.2019 12.743 13.172 12.8685C13.0079 13.5554 12.4221 14.0805 11.7043 14.1528C11.6485 14.1584 11.5919 14.1613 11.5345 14.1613C11.2106 14.1615 10.8936 14.0678 10.622 13.8915C10.1584 13.5912 9.85073 13.0697 9.85073 12.4775ZM16.8782 10.4753C16.5117 10.825 16.2481 11.2683 16.1157 11.7573C15.481 11.7339 14.8457 11.7339 14.2111 11.7573C14.0686 11.2288 13.7733 10.7625 13.376 10.4083L15.1184 6.88535L16.8782 10.4753ZM9.37302 1.78124H20.8588L18.146 9.78223C18.0293 9.81018 17.9145 9.84573 17.8025 9.88866L15.1226 4.42183L12.4351 9.85601C12.3179 9.81579 12.1982 9.78352 12.0767 9.75941L9.37302 1.78124ZM20.4758 12.4776C20.4758 12.6464 20.4506 12.8094 20.4042 12.9633C20.2941 13.3257 20.0656 13.6406 19.7552 13.8576C19.4731 14.0556 19.1367 14.1616 18.792 14.1613C18.0146 14.1613 17.3588 13.6316 17.166 12.9141C17.1277 12.7718 17.1083 12.625 17.1083 12.4776C17.1083 12.2474 17.1548 12.028 17.2387 11.828C17.2821 11.7257 17.3354 11.6279 17.398 11.5361C17.701 11.0888 18.2123 10.7939 18.792 10.7939C18.8452 10.7939 18.8976 10.7966 18.9496 10.8015C19.8045 10.8811 20.4758 11.6022 20.4758 12.4776ZM21.5641 12.4776C21.5641 11.1243 20.589 9.99509 19.3047 9.7539L22.3769 0.692841H7.85517L10.9321 9.77222C9.6924 10.0481 8.76251 11.1559 8.76251 12.4775C8.76251 13.4699 9.28694 14.3415 10.0729 14.8314C9.69486 15.3947 9.24658 15.9247 8.73282 16.4094C7.91801 17.178 7.01034 17.761 6.03176 18.1446C5.04607 17.5254 4.62942 16.3577 5.0621 15.3406L5.09602 15.2608L5.15962 15.1112C6.24225 14.7336 7.02136 13.7032 7.02136 12.4935C7.02136 10.965 5.77786 9.7215 4.2494 9.7215C2.72087 9.7215 1.47736 10.965 1.47736 12.4935C1.47736 13.265 1.79453 13.9637 2.30489 14.4667C2.20971 14.6684 2.11308 14.8694 2.01503 15.0697C1.54834 16.0281 1.0195 17.1144 0.819439 18.3207C0.422209 20.7165 1.063 22.6316 2.62385 23.7133C3.57096 24.3697 4.53282 24.6279 5.50071 24.6279C7.32318 24.6279 9.16686 23.7122 10.9701 22.8165C12.2687 22.1716 13.6116 21.5046 14.9381 21.1774C15.4316 21.0557 15.9394 20.9824 16.4771 20.9049C17.5434 20.7511 18.6458 20.5921 19.6225 20.0265C20.7545 19.3708 21.5294 18.2708 21.7485 17.0089C21.9366 15.9255 21.7103 14.8405 21.1582 13.9201C21.4242 13.486 21.5648 12.9867 21.5642 12.4775L21.5641 12.4776Z" fill="white"/>
</g>
<defs>
<clipPath id="clip0_490_40753">
<rect width="21.7102" height="24" fill="white" transform="translate(0.704468 0.692841)"/>
</clipPath>
</defs>
</svg>
