<svg width="22" height="24" viewBox="0 0 22 24" fill="none" xmlns="http://www.w3.org/2000/svg">
<g id="logos:html-5" clip-path="url(#clip0_490_40712)">
<path id="Vector" d="M21.75 0L19.7685 21.5975L10.8617 24L1.97942 21.6008L0 0H21.75Z" fill="#222222"/>
<path id="Vector_2" d="M10.5001 22.5L17.786 20.5013L19.5001 1.5H10.5001V22.5Z" fill="#4C4949"/>
<path id="Vector_3" d="M6.69201 6.53131H10.5001V3.75H3.75012L3.81452 4.49616L4.47617 12.1607H10.5001V9.37941H6.93805L6.69201 6.53131ZM7.29871 13.5514H4.59645L4.97356 17.9185L10.4877 19.5L10.5001 19.4965V16.6028L10.4883 16.606L7.49038 15.7696L7.29871 13.5514Z" fill="#EBEBEB"/>
<path id="Vector_4" d="M10.5002 12.1614H13.8183L13.5054 15.7689L10.5001 16.6062V19.5L16.0242 17.9197L16.0647 17.4497L16.698 10.1268L16.7637 9.37988H10.5002V12.1614ZM10.5002 6.52474V6.53154H17.0089L17.0629 5.90637L17.1857 4.49623L17.2501 3.75H10.5002V6.52474Z" fill="white"/>
</g>
<defs>
<clipPath id="clip0_490_40712">
<rect width="21.75" height="24" fill="white"/>
</clipPath>
</defs>
</svg>
