<svg width="33" height="25" viewBox="0 0 33 25" fill="none" xmlns="http://www.w3.org/2000/svg">
<g id="devicon:sass" clip-path="url(#clip0_490_40744)">
<path id="Vector" fill-rule="evenodd" clip-rule="evenodd" d="M0.429443 10.3541C0.429443 10.5338 0.482307 10.6524 0.511931 10.7677C0.704999 11.5173 1.11999 12.1606 1.61236 12.7474C2.31364 13.5837 3.17248 14.2569 4.05227 14.89C4.81534 15.439 5.594 15.9757 6.36014 16.5206C6.49166 16.6142 6.61603 16.7218 6.75879 16.8365C6.63595 16.903 6.53379 16.9615 6.42756 17.0155C5.41651 17.5287 4.44376 18.104 3.54712 18.801C3.00674 19.2212 2.48423 19.6677 2.11521 20.2512C1.52145 21.1897 1.31127 22.1895 1.75384 23.2571C1.88307 23.5689 2.08022 23.8383 2.35833 24.0374C2.44848 24.1018 2.54961 24.1657 2.65508 24.1908C2.92527 24.2544 3.20057 24.2961 3.47409 24.3464L4.24865 24.3459C5.1052 24.2695 5.88487 23.9758 6.58947 23.4892C7.69067 22.7286 8.43255 21.7088 8.75152 20.3999C8.9834 19.4486 8.99285 18.4963 8.71959 17.5494C8.69344 17.4616 8.66327 17.3752 8.62919 17.2902C8.59599 17.2051 8.55692 17.1223 8.51095 17.0162L10.2669 16.0056L10.2932 16.0281C10.2613 16.1327 10.2274 16.2369 10.1985 16.3425C9.98985 17.1052 9.85118 17.8811 9.90098 18.6727C9.9541 19.5161 10.1893 20.3056 10.6827 21.0103C11.0816 21.5802 12.0321 21.6014 12.4561 21.0294C12.6065 20.8262 12.7523 20.6138 12.8619 20.3871C13.1481 19.7955 13.4132 19.1933 13.6867 18.5952L13.7345 18.4858C13.7148 18.769 13.6918 19.0177 13.6814 19.2667C13.665 19.6554 13.6878 20.0418 13.8206 20.4117C13.9342 20.7281 14.1275 20.9645 14.4897 21.0062C14.7374 21.0345 14.9348 20.9211 15.1169 20.7772C15.399 20.5541 15.6328 20.2759 15.8041 19.9595C16.2896 19.0673 16.7881 18.1804 17.2281 17.2657C17.7041 16.2763 18.1204 15.2581 18.5625 14.2518L18.6355 14.0734C18.7399 14.4841 18.8127 14.8864 18.9468 15.2673C19.1026 15.7092 19.2954 16.1406 19.5053 16.56C19.6047 16.7581 19.5932 16.8866 19.4555 17.0528C18.8794 17.748 18.3132 18.4516 17.7465 19.1545C17.6211 19.3096 17.4962 19.4675 17.3918 19.637C17.3284 19.744 17.2868 19.8625 17.2692 19.9856C17.2516 20.099 17.2786 20.2148 17.3444 20.3087C17.4103 20.4026 17.5099 20.4674 17.6224 20.4894C17.8495 20.5383 18.0823 20.5549 18.314 20.5387C19.1049 20.4804 19.823 20.2026 20.4579 19.7318C21.2805 19.122 21.5445 18.2898 21.3453 17.3035C21.2914 17.0359 21.1962 16.7757 21.1035 16.5178C21.0619 16.4015 21.0591 16.32 21.1349 16.2116C21.7925 15.2719 22.3543 14.2748 22.8768 13.2548C22.8975 13.2146 22.9187 13.1745 22.955 13.1316C23.1243 14.0134 23.3792 14.8632 23.8358 15.6343C23.6029 15.8589 23.3723 16.0626 23.1636 16.287C22.7042 16.7813 22.3058 17.3181 22.0979 17.9726C22.0086 18.2548 21.9399 18.5416 21.9797 18.8429C22.0415 19.3109 22.4246 19.615 22.8845 19.5084C23.8687 19.2805 24.7184 18.8163 25.3392 17.9941C25.757 17.4405 25.7951 16.823 25.6201 16.1761C25.5721 16.0003 25.5152 15.8272 25.4539 15.6256C25.6968 15.5502 25.9335 15.4597 26.1784 15.4037C27.4499 15.1134 28.7077 15.164 29.933 15.6235C30.6483 15.8919 31.2262 16.341 31.569 17.0474C31.9875 17.911 31.7562 18.7304 30.9428 19.2764C30.8669 19.3272 30.7801 19.3674 30.7173 19.431C30.6971 19.4543 30.6821 19.4816 30.6731 19.5111C30.6641 19.5406 30.6613 19.5716 30.6649 19.6022C30.6703 19.6337 30.7533 19.673 30.801 19.6725C31.0684 19.6705 31.2852 19.5302 31.4934 19.386C32.0149 19.0249 32.3954 18.539 32.4774 17.8993L32.4934 17.8512L32.4738 17.4346C32.4659 17.4106 32.4797 17.3868 32.4779 17.3687C32.367 16.4371 31.8698 15.7145 31.1466 15.1482C30.3089 14.4926 29.3198 14.2227 28.2738 14.18C27.4254 14.1435 26.5781 14.274 25.78 14.5641C25.5509 14.6472 25.3239 14.7456 25.0935 14.8384C25.0626 14.7824 25.0294 14.7287 25.0021 14.6733C24.7656 14.1887 24.4791 13.7256 24.4158 13.1699C24.3708 12.7753 24.3157 12.3812 24.4094 11.9909C24.4995 11.6154 24.617 11.2464 24.7276 10.876C24.7845 10.6854 24.7444 10.5785 24.5626 10.4927C24.4993 10.461 24.4316 10.4388 24.3619 10.4267C23.915 10.3618 23.4742 10.3989 23.0413 10.5249C22.8881 10.5696 22.7767 10.6555 22.7428 10.8252C22.7234 10.9226 22.6838 11.0158 22.6562 11.1119C22.5431 11.5114 22.4629 11.9186 22.28 12.2991C21.8219 13.2537 21.2989 14.1723 20.7636 15.0843C20.7056 15.1827 20.6446 15.2793 20.5715 15.3986C20.3836 15.005 20.1831 14.6518 20.1223 14.2378C20.0536 13.7695 19.9995 13.3021 20.1159 12.8374C20.2025 12.4908 20.3156 12.1506 20.4198 11.8087C20.4691 11.6461 20.4464 11.5608 20.2993 11.4751C20.225 11.4319 20.141 11.3936 20.0572 11.3811C19.5989 11.3112 19.1307 11.3495 18.6899 11.493C18.5512 11.538 18.4784 11.6277 18.436 11.7708C18.3114 12.1931 18.2052 12.6255 18.0302 13.027C17.3218 14.6526 16.593 16.2697 15.8649 17.8865C15.7129 18.2241 15.5349 18.55 15.3636 18.8787C15.3201 18.962 15.2568 19.0354 15.2027 19.1136C15.1593 19.0622 15.1424 19.0269 15.1427 18.9916C15.1439 18.7839 15.1192 18.5699 15.1587 18.369C15.2803 17.7615 15.4147 17.1565 15.5617 16.5546C15.6818 16.0573 15.8215 15.5645 15.9545 15.0705C15.9992 14.9051 16 14.7505 15.8812 14.6114C15.6818 14.3786 15.265 14.3275 15.0178 14.5069L14.9085 14.5687L14.9297 14.3924C14.9818 14.0144 14.9922 13.6376 14.8886 13.2653C14.7593 12.8011 14.4284 12.534 13.9472 12.5488C13.723 12.5557 13.4875 12.5941 13.2799 12.6759C12.4068 13.0184 11.7354 13.6249 11.1638 14.3546C11.1109 14.4223 11.0452 14.4791 10.9705 14.5217C10.2317 14.9317 9.49059 15.3365 8.74973 15.7429L7.92511 16.195C7.70395 15.9839 7.50296 15.7649 7.27491 15.5791C6.57849 15.0106 5.87083 14.4563 5.16955 13.8942C4.54796 13.3961 3.94577 12.8773 3.48507 12.2176C3.14235 11.7269 2.92144 11.1899 2.90025 10.5831C2.87343 9.80999 3.09255 9.10355 3.48583 8.44593C3.98893 7.60454 4.67514 6.92928 5.42953 6.31767C6.22759 5.67104 7.09078 5.12204 7.98538 4.62083C9.23699 3.91976 10.5244 3.2992 11.9047 2.8895C13.32 2.46931 14.756 2.22881 16.2372 2.39647C16.8195 2.46241 17.3849 2.59583 17.9041 2.88081C18.3017 3.09882 18.6278 3.38431 18.7795 3.83056C18.9292 4.26966 18.9246 4.71463 18.8209 5.16063C18.6102 6.06387 18.1161 6.80839 17.4942 7.47368C16.4742 8.56427 15.23 9.30674 13.8292 9.79721C13.0238 10.0796 12.1859 10.2585 11.3355 10.3296C10.6385 10.3881 9.95614 10.3263 9.29624 10.0837C8.85929 9.92296 8.47877 9.67708 8.17283 9.32029C8.11817 9.25639 8.0482 9.18713 7.9463 9.24693C7.84645 9.30572 7.82883 9.4008 7.86228 9.49715C7.91821 9.65715 7.9698 9.82379 8.05688 9.96692C8.27574 10.326 8.59497 10.5865 8.94637 10.8098C9.62134 11.2395 10.3757 11.3839 11.158 11.4174C12.345 11.4687 13.5031 11.2914 14.6449 10.9726C16.275 10.5177 17.6924 9.71414 18.8291 8.44644C19.7755 7.39087 20.4515 6.19959 20.5963 4.76115C20.667 4.05906 20.5917 3.37128 20.2633 2.73078C19.907 2.03686 19.3406 1.52084 18.6633 1.16532C17.6771 0.647756 16.6126 0.34642 15.514 0.34642H14.4133C13.0828 0.34642 11.7964 0.72801 10.5461 1.18321C9.59963 1.52799 8.67158 1.93488 7.7706 2.38523C5.80852 3.36642 3.98127 4.54953 2.4804 6.17633C1.73265 6.98679 1.09956 7.88108 0.735389 8.9341C0.625474 9.24848 0.530789 9.568 0.451661 9.89152M7.56119 19.0959C7.47615 20.2356 6.96002 21.1595 6.1165 21.9079C5.64201 22.3286 5.09779 22.6281 4.46394 22.7334C4.2341 22.7715 3.99889 22.7807 3.77594 22.6854C3.458 22.5494 3.38675 22.267 3.38062 21.9662C3.37117 21.4867 3.53895 21.0532 3.76905 20.6407C4.06938 20.1029 4.50965 19.693 4.97981 19.3101C5.72041 18.7067 6.52384 18.196 7.34667 17.714L7.40873 17.6884C7.53591 18.1587 7.59643 18.6231 7.56119 19.0959ZM13.986 14.1429C13.926 14.5069 13.8509 14.8711 13.7447 15.2238C13.3775 16.4447 12.9058 17.6278 12.3958 18.7951C12.3016 19.0111 12.1644 19.2081 12.0452 19.4129C12.0249 19.4443 12.0006 19.473 11.9729 19.4982C11.8253 19.6442 11.6853 19.6365 11.6108 19.4456C11.5239 19.2237 11.4705 18.9863 11.4246 18.7514C11.3937 18.5937 11.4011 18.4281 11.3914 18.2666C11.4013 17.1179 11.7515 16.0741 12.3455 15.1024C12.5904 14.7016 12.857 14.3198 13.2643 14.0663C13.3911 13.9874 13.5282 13.9267 13.6717 13.8858C13.8887 13.8247 14.0221 13.9252 13.986 14.1429ZM18.3694 19.7321L19.9448 17.8911C20.0105 18.5748 18.8492 19.9396 18.3694 19.7321ZM23.4011 18.4933C23.2898 18.5571 23.1685 18.6032 23.0543 18.6622C22.9499 18.7164 22.9154 18.6617 22.9123 18.5717C22.9108 18.5094 22.9188 18.4473 22.9361 18.3874C23.1488 17.6365 23.5403 16.9955 24.1228 16.4741L24.1637 16.4532C24.4408 17.2289 24.1205 18.0807 23.4011 18.4933Z" fill="#222222"/>
</g>
<defs>
<clipPath id="clip0_490_40744">
<rect width="32.064" height="24" fill="white" transform="translate(0.429443 0.34642)"/>
</clipPath>
</defs>
</svg>
