<svg width="25" height="24" viewBox="0 0 25 24" fill="none" xmlns="http://www.w3.org/2000/svg">
<g id="vscode-icons:file-type-node" clip-path="url(#clip0_490_40733)">
<path id="Vector" d="M12.1938 24C11.8696 24.0001 11.5511 23.915 11.2703 23.7531L8.33142 22.0157C7.89282 21.7705 8.10654 21.684 8.2516 21.6334C8.71807 21.4895 9.16471 21.2879 9.58113 21.0334C9.61599 21.0173 9.65438 21.0103 9.69268 21.0132C9.73098 21.016 9.76792 21.0286 9.8 21.0497L12.0582 22.3894C12.1003 22.4116 12.1471 22.4232 12.1947 22.4232C12.2423 22.4232 12.2891 22.4116 12.3312 22.3894L21.1375 17.3133C21.1787 17.2887 21.2128 17.2538 21.2364 17.212C21.26 17.1702 21.2724 17.123 21.2723 17.075V6.92119C21.2723 6.87246 21.2597 6.82454 21.2358 6.78205C21.2119 6.73956 21.1775 6.70394 21.1358 6.67862L12.3295 1.60683C12.2879 1.58348 12.2411 1.57121 12.1934 1.57121C12.1458 1.57121 12.0989 1.58348 12.0574 1.60683L3.2562 6.68033C3.21422 6.70512 3.17936 6.74033 3.155 6.78252C3.13064 6.82472 3.1176 6.87249 3.11715 6.92119V17.0708C3.11727 17.1186 3.13013 17.1656 3.15441 17.2069C3.17869 17.2481 3.21353 17.2822 3.25534 17.3056L5.67064 18.6976C6.97957 19.3508 7.78124 18.5811 7.78124 17.8079V7.78692C7.78124 7.71872 7.80837 7.65331 7.85666 7.60509C7.90495 7.55686 7.97044 7.52977 8.03874 7.52977H9.15455C9.22284 7.52977 9.28833 7.55686 9.33662 7.60509C9.38491 7.65331 9.41204 7.71872 9.41204 7.78692V17.8088C9.41204 19.5531 8.46103 20.5517 6.80448 20.5517C6.08982 20.5641 5.38638 20.3732 4.77628 20.0014L2.4614 18.6754C2.18037 18.5119 1.94719 18.2777 1.78514 17.9962C1.62308 17.7146 1.53781 17.3955 1.53785 17.0708V6.92119C1.53701 6.59593 1.62192 6.27617 1.78403 5.99406C1.94615 5.71194 2.17976 5.47741 2.4614 5.31403L11.2686 0.236241C11.5523 0.08124 11.8705 0 12.1938 0C12.5172 0 12.8354 0.08124 13.1191 0.236241L21.9254 5.31403C22.2064 5.47714 22.4397 5.71099 22.6019 5.99225C22.7641 6.27351 22.8496 6.59233 22.8498 6.9169V17.0708C22.8494 17.3955 22.7638 17.7145 22.6016 17.996C22.4394 18.2775 22.2063 18.5117 21.9254 18.6754L13.1191 23.7531C12.8378 23.9152 12.5186 24.0004 12.1938 24Z" fill="#222222"/>
<path id="Vector_2" d="M10.562 13.6683C10.562 13.6004 10.589 13.5353 10.6372 13.4873C10.6853 13.4393 10.7505 13.4124 10.8186 13.4124H11.9535C12.0142 13.4126 12.0728 13.4342 12.119 13.4734C12.1652 13.5125 12.1959 13.5668 12.2058 13.6265C12.3769 14.7789 12.8901 15.3597 15.2104 15.3597C17.0587 15.3597 17.8464 14.9426 17.8464 13.9642C17.8464 13.4004 17.6232 12.9816 14.7503 12.701C12.3487 12.4638 10.8639 11.9333 10.8639 10.0191C10.8639 8.25345 12.3564 7.2 14.8581 7.2C17.6693 7.2 19.0609 8.17326 19.2371 10.2614C19.2398 10.2963 19.2353 10.3313 19.2238 10.3644C19.2124 10.3974 19.1943 10.4278 19.1707 10.4536C19.1471 10.4794 19.1184 10.5001 19.0864 10.5145C19.0544 10.5288 19.0198 10.5364 18.9848 10.5369H17.8421C17.7848 10.5361 17.7294 10.5162 17.6847 10.4803C17.6401 10.4445 17.6088 10.3947 17.5958 10.339C17.323 9.12691 16.655 8.73965 14.8589 8.73965C12.8405 8.73965 12.6061 9.44081 12.6061 9.96626C12.6061 10.6026 12.8832 10.7885 15.6081 11.1477C18.3048 11.5034 19.586 12.0066 19.586 13.8969C19.586 15.8042 17.9918 16.896 15.2113 16.896C11.3668 16.9011 10.562 15.1431 10.562 13.6683Z" fill="#222222"/>
</g>
<defs>
<clipPath id="clip0_490_40733">
<rect width="24" height="24" fill="white" transform="translate(0.19397)"/>
</clipPath>
</defs>
</svg>
