<svg width="25" height="25" viewBox="0 0 25 25" fill="none" xmlns="http://www.w3.org/2000/svg">
<g clip-path="url(#clip0_490_40756)">
<path d="M18.9354 8.76043L16.5657 14.6785L14.1816 8.76043H12.231L15.5723 16.8375L13.1954 22.5309L14.8977 22.8688L20.775 8.75684H18.9354V8.76043Z" fill="#222222"/>
<path d="M8.58132 10.2112C9.05524 10.202 9.52105 10.3331 9.91843 10.5874C10.3158 10.8418 10.6264 11.2077 10.8101 11.6377L10.8429 11.7085L12.5191 11.153L12.4826 11.0687C12.1638 10.3137 11.6208 9.671 10.9247 9.22463C10.2286 8.77826 9.4119 8.54904 8.58132 8.56693C8.01503 8.54917 7.45096 8.64468 6.92326 8.84768C6.39556 9.05068 5.9152 9.35695 5.51124 9.74794C5.10672 10.1275 4.78691 10.5858 4.57216 11.0937C4.35742 11.6015 4.25244 12.1478 4.26391 12.6978C4.25256 13.2461 4.35755 13.7906 4.57217 14.2967C4.78679 14.8028 5.10631 15.2592 5.51033 15.6369C5.91421 16.028 6.39454 16.3345 6.92224 16.5376C7.44995 16.7408 8.01405 16.8364 8.58041 16.8188C9.41097 16.8366 10.2277 16.6073 10.9237 16.1609C11.6197 15.7146 12.1627 15.0719 12.4817 14.317L12.5182 14.2327L10.8393 13.6763L10.8074 13.7507C10.6283 14.1833 10.3189 14.5516 9.92076 14.806C9.52262 15.0604 9.05485 15.1887 8.58041 15.1736C8.25543 15.1812 7.93238 15.1225 7.63155 15.0013C7.33072 14.8801 7.05861 14.699 6.83232 14.4693C6.60017 14.2367 6.41786 13.9606 6.29618 13.6574C6.1745 13.3542 6.11594 13.03 6.12398 12.7041C6.11605 12.3757 6.1746 12.0491 6.29621 11.7433C6.41782 11.4375 6.60007 11.1585 6.83232 10.9227C7.05797 10.692 7.3299 10.51 7.63084 10.3883C7.93177 10.2666 8.25515 10.2078 8.58041 10.2157L8.58132 10.2112Z" fill="#222222"/>
<path d="M0.473837 15.8608C0.184883 14.8166 0.0385942 13.7382 0.038941 12.6548C0.0561112 10.2047 0.812835 7.81677 2.21031 5.80268C3.60778 3.7886 5.58106 2.24201 7.87249 1.36485L8.48694 2.93678C6.51443 3.69162 4.8158 5.02284 3.6129 6.75654C2.41 8.49025 1.75876 10.5458 1.74424 12.6548C1.7438 13.5869 1.86945 14.5147 2.11778 15.4131L0.473837 15.8608Z" fill="#222222"/>
<path d="M7.81506 1.42949C10.6209 0.334263 13.7295 0.318998 16.5458 1.38662C19.3621 2.45424 21.6883 4.52974 23.0791 7.21582L21.569 7.98884C20.3726 5.67678 18.3709 3.89002 15.9473 2.97054C13.5237 2.05107 10.8482 2.06346 8.4331 3.00536L7.81506 1.42949Z" fill="#222222"/>
<path d="M17.799 21.4423C20.0327 20.0482 21.6549 17.8711 22.3426 15.3445C23.0302 12.8179 22.7329 10.1273 21.5098 7.80824L23.0303 7.02884C24.4541 9.72237 24.8012 12.8491 24.0023 15.7852C23.2034 18.7213 21.3173 21.2507 18.7203 22.8688L17.799 21.4459V21.4423Z" fill="#222222"/>
<path d="M13.5579 21.6825L13.1428 22.6768C13.1028 22.7734 13.0361 22.8565 12.9504 22.9166C12.8647 22.9767 12.7637 23.0112 12.6591 23.0161C12.5192 23.0215 12.4206 23.0075 12.2771 23.0075C9.89854 23.0045 7.59026 22.2031 5.7241 20.7325C3.85794 19.262 2.54256 17.2077 1.98988 14.9008L0.326782 15.2725C0.942972 17.9298 2.44053 20.302 4.57702 22.005C6.7592 23.7396 9.4657 24.6869 12.2563 24.6928H12.2816C12.4458 24.6928 12.6074 24.6928 12.7707 24.682C13.2001 24.6646 13.6155 24.5253 13.9682 24.2805C14.3208 24.0356 14.596 23.6954 14.7613 23.2999L15.2548 22.0048L13.5579 21.6825Z" fill="#222222"/>
</g>
<defs>
<clipPath id="clip0_490_40756">
<rect width="24" height="24" fill="white" transform="translate(0.230957 0.692841)"/>
</clipPath>
</defs>
</svg>
