<svg width="25" height="24" viewBox="0 0 25 24" fill="none" xmlns="http://www.w3.org/2000/svg">
<g id="devicon:react-wordmark" clip-path="url(#clip0_722_2390)">
<g id="Group">
<path id="Vector" d="M12.4456 14.4423C13.651 14.4423 14.6282 13.3429 14.6282 11.9868C14.6282 10.6307 13.651 9.53137 12.4456 9.53137C11.2401 9.53137 10.2629 10.6307 10.2629 11.9868C10.2629 13.3429 11.2401 14.4423 12.4456 14.4423Z" fill="#222222"/>
<path id="Vector_2" d="M12.4457 21.0165C14.159 22.8911 15.8487 24 17.2099 24C17.6558 24 18.0783 23.8944 18.4303 23.6568C19.6507 22.8647 20.0966 20.8845 19.6742 18.0594C19.6038 17.5578 19.5099 17.0561 19.3926 16.5281C19.8619 16.3696 20.2844 16.2112 20.7068 16.0528C23.0772 15.0231 24.3915 13.5974 24.3915 12.0396C24.3915 10.4554 23.0772 9.0297 20.7068 8.0264C20.2844 7.84158 19.8619 7.68317 19.3926 7.55116C19.5099 7.0231 19.6038 6.52145 19.6742 6.0198C20.0732 3.14191 19.6272 1.13531 18.4069 0.343234C18.0548 0.105611 17.6324 0 17.1865 0C15.8487 0 14.1355 1.10891 12.4223 2.9835C10.7325 1.10891 9.04272 0 7.68152 0C7.23561 0 6.81316 0.105611 6.46113 0.343234C5.24074 1.13531 4.79483 3.11551 5.21727 5.94059C5.28768 6.44224 5.38155 6.94389 5.4989 7.47195C5.02952 7.63036 4.60708 7.78878 4.18463 7.9472C1.81426 8.9769 0.5 10.4026 0.5 11.9604C0.5 13.5446 1.81426 14.9703 4.18463 15.9736C4.60708 16.1584 5.02952 16.3168 5.4989 16.4488C5.38155 16.9769 5.28768 17.4785 5.21727 17.9802C4.8183 20.8053 5.26421 22.8119 6.46113 23.5776C6.81316 23.8152 7.23561 23.9208 7.68152 23.9208C9.04272 23.9736 10.7325 22.8647 12.4457 21.0165ZM11.1315 17.4521C11.5539 17.4785 11.9998 17.4785 12.4457 17.4785C12.8916 17.4785 13.3375 17.4785 13.76 17.4521C13.3375 18.0858 12.8916 18.6667 12.4457 19.2211C11.9998 18.6667 11.5539 18.0858 11.1315 17.4521ZM8.2213 14.7327C8.456 15.1815 8.66722 15.604 8.92537 16.0264C8.19784 15.9208 7.51723 15.7888 6.8601 15.6304C7.07132 14.9175 7.30601 14.1782 7.58764 13.4389C7.77539 13.8614 7.98661 14.3102 8.2213 14.7327ZM6.8601 8.36964C7.51723 8.21122 8.19784 8.07921 8.92537 7.9736C8.69069 8.39604 8.456 8.81848 8.2213 9.26733C7.98661 9.71617 7.77539 10.1386 7.58764 10.5875C7.28254 9.82178 7.04785 9.08251 6.8601 8.36964ZM8.1509 11.9868C8.45599 11.2739 8.78456 10.5611 9.16007 9.84819C9.5121 9.16172 9.91107 8.47525 10.31 7.78878C11.0141 7.73597 11.7182 7.70957 12.4457 7.70957C13.1967 7.70957 13.9008 7.73597 14.5814 7.78878C15.0038 8.47525 15.3794 9.16172 15.7314 9.84819C16.1069 10.5611 16.4355 11.2739 16.7406 11.9868C16.4355 12.6997 16.1069 13.4125 15.7314 14.1254C15.3794 14.8119 14.9804 15.4984 14.5814 16.1848C13.8773 16.2376 13.1733 16.264 12.4457 16.264C11.6947 16.264 10.9906 16.2376 10.31 16.1848C9.8876 15.4984 9.5121 14.8119 9.16007 14.1254C8.78456 13.4125 8.45599 12.6997 8.1509 11.9868ZM17.3273 10.5611L16.6936 9.24092C16.4589 8.79208 16.2477 8.36964 15.9895 7.9472C16.7171 8.0528 17.3977 8.18482 18.0548 8.34323C17.8436 9.08251 17.6089 9.82178 17.3273 10.5611ZM17.3273 13.4125C17.6089 14.1518 17.8436 14.8911 18.0548 15.604C17.3977 15.7624 16.7171 15.8944 15.9895 16C16.2242 15.5776 16.4589 15.1551 16.6936 14.7063C16.9048 14.3102 17.1161 13.8614 17.3273 13.4125ZM17.8671 22.5743C17.6793 22.7063 17.4446 22.7591 17.1865 22.7591C16.0365 22.7591 14.6049 21.703 13.1967 20.1188C13.8773 19.3003 14.5345 18.3762 15.1916 17.3465C16.2946 17.2409 17.3507 17.0561 18.3364 16.7921C18.4538 17.2673 18.5242 17.7426 18.5946 18.2178C18.9232 20.462 18.665 22.0726 17.8671 22.5743ZM19.0875 8.66007C21.716 9.50495 23.2884 10.7987 23.2884 11.9868C23.2884 13.0165 22.2088 14.0462 20.3078 14.8647C19.9323 15.0231 19.5099 15.1815 19.0875 15.3135C18.7824 14.231 18.4069 13.1221 17.9375 11.9868C18.4069 10.8515 18.8058 9.74257 19.0875 8.66007ZM17.2099 1.21452C17.4681 1.21452 17.6793 1.26733 17.8905 1.39934C18.665 1.90099 18.9466 3.48515 18.6181 5.75578C18.5477 6.20462 18.4538 6.67987 18.3599 7.18152C17.3742 6.94389 16.3181 6.75908 15.2151 6.62706C14.5814 5.59736 13.9008 4.67327 13.2202 3.85479C14.6283 2.29703 16.06 1.21452 17.2099 1.21452ZM13.76 6.52145C13.3375 6.49505 12.8916 6.49505 12.4457 6.49505C11.9998 6.49505 11.5539 6.49505 11.1315 6.52145C11.5539 5.88779 11.9998 5.30693 12.4457 4.75248C12.8916 5.30693 13.3375 5.91419 13.76 6.52145ZM7.02439 1.39934C7.21214 1.26733 7.44683 1.21452 7.70499 1.21452C8.85497 1.21452 10.2866 2.27063 11.6947 3.85479C11.0141 4.67327 10.357 5.59736 9.69985 6.62706C8.59681 6.73267 7.5407 6.91749 6.55501 7.18152C6.43766 6.70627 6.36725 6.23102 6.29685 5.75578C5.96828 3.51155 6.22644 1.92739 7.02439 1.39934ZM5.804 15.3135C3.17547 14.4686 1.60304 13.1749 1.60304 11.9868C1.60304 10.9571 2.68262 9.92739 4.58361 9.10891C4.95911 8.95049 5.38155 8.79208 5.804 8.66007C6.10909 9.74257 6.4846 10.8515 6.95398 11.9868C6.4846 13.1221 6.08562 14.2574 5.804 15.3135ZM6.29685 18.2178C6.36725 17.769 6.46113 17.2937 6.55501 16.7921C7.5407 17.0297 8.59681 17.2145 9.69985 17.3465C10.3335 18.3762 11.0141 19.3003 11.6947 20.1188C10.2866 21.6766 8.85497 22.7591 7.70499 22.7591C7.44683 22.7591 7.23561 22.7063 7.02439 22.5743C6.22644 22.0726 5.96828 20.462 6.29685 18.2178Z" fill="#222222"/>
</g>
</g>
<defs>
<clipPath id="clip0_722_2390">
<rect width="24" height="24" fill="white" transform="translate(0.5)"/>
</clipPath>
</defs>
</svg>
