<svg xmlns="http://www.w3.org/2000/svg" width="28" height="24" viewBox="0 0 28 24" fill="none">
  <g clip-path="url(#clip0_490_40728)">
    <path d="M13.6373 14.4422C14.9934 14.4422 16.0928 13.3429 16.0928 11.9868C16.0928 10.6307 14.9934 9.53135 13.6373 9.53135C12.2812 9.53135 11.1819 10.6307 11.1819 11.9868C11.1819 13.3429 12.2812 14.4422 13.6373 14.4422Z" fill="#222222"/>
    <path d="M13.6377 21.0165C15.5651 22.8911 17.4661 24 18.9974 24C19.4991 24 19.9743 23.8944 20.3703 23.6568C21.7433 22.8647 22.2449 20.8845 21.7697 18.0594C21.6905 17.5578 21.5849 17.0561 21.4529 16.5281C21.9809 16.3696 22.4562 16.2112 22.9314 16.0528C25.5981 15.0231 27.0766 13.5974 27.0766 12.0396C27.0766 10.4554 25.5981 9.0297 22.9314 8.0264C22.4562 7.84158 21.9809 7.68317 21.4529 7.55116C21.5849 7.0231 21.6905 6.52145 21.7697 6.0198C22.2185 3.14191 21.7169 1.13531 20.3439 0.343234C19.9479 0.105611 19.4727 0 18.971 0C17.4661 0 15.5387 1.10891 13.6113 2.9835C11.7103 1.10891 9.80929 0 8.27794 0C7.77629 0 7.30104 0.105611 6.905 0.343234C5.53206 1.13531 5.03041 3.11551 5.50566 5.94059C5.58487 6.44224 5.69048 6.94389 5.82249 7.47195C5.29444 7.63036 4.81919 7.78878 4.34394 7.9472C1.67728 8.9769 0.19873 10.4026 0.19873 11.9604C0.19873 13.5446 1.67728 14.9703 4.34394 15.9736C4.81919 16.1584 5.29444 16.3168 5.82249 16.4488C5.69048 16.9769 5.58487 17.4785 5.50566 17.9802C5.05682 20.8053 5.55847 22.8119 6.905 23.5776C7.30104 23.8152 7.77629 23.9208 8.27794 23.9208C9.80929 23.9736 11.7103 22.8647 13.6377 21.0165ZM12.1591 17.4521C12.6344 17.4785 13.136 17.4785 13.6377 17.4785C14.1393 17.4785 14.641 17.4785 15.1162 17.4521C14.641 18.0858 14.1393 18.6667 13.6377 19.2211C13.136 18.6667 12.6344 18.0858 12.1591 17.4521ZM8.8852 14.7327C9.14923 15.1815 9.38685 15.604 9.67728 16.0264C8.8588 15.9208 8.09312 15.7888 7.35385 15.6304C7.59147 14.9175 7.8555 14.1782 8.17233 13.4389C8.38355 13.8614 8.62117 14.3102 8.8852 14.7327ZM7.35385 8.36964C8.09312 8.21122 8.8588 8.07921 9.67728 7.9736C9.41325 8.39604 9.14923 8.81848 8.8852 9.26733C8.62117 9.71617 8.38355 10.1386 8.17233 10.5875C7.82909 9.82178 7.56507 9.08251 7.35385 8.36964ZM8.80599 11.9868C9.14922 11.2739 9.51886 10.5611 9.9413 9.84819C10.3373 9.16172 10.7862 8.47525 11.235 7.78878C12.0271 7.73597 12.8192 7.70957 13.6377 7.70957C14.4826 7.70957 15.2746 7.73597 16.0403 7.78878C16.5156 8.47525 16.938 9.16172 17.334 9.84819C17.7565 10.5611 18.1261 11.2739 18.4694 11.9868C18.1261 12.6997 17.7565 13.4125 17.334 14.1254C16.938 14.8119 16.4892 15.4984 16.0403 16.1848C15.2482 16.2376 14.4562 16.264 13.6377 16.264C12.7928 16.264 12.0007 16.2376 11.235 16.1848C10.7598 15.4984 10.3373 14.8119 9.9413 14.1254C9.51886 13.4125 9.14922 12.6997 8.80599 11.9868ZM19.1294 10.5611L18.4165 9.24092C18.1525 8.79208 17.9149 8.36964 17.6245 7.9472C18.443 8.0528 19.2086 8.18482 19.9479 8.34323C19.7103 9.08251 19.4463 9.82178 19.1294 10.5611ZM19.1294 13.4125C19.4463 14.1518 19.7103 14.8911 19.9479 15.604C19.2086 15.7624 18.443 15.8944 17.6245 16C17.8885 15.5776 18.1525 15.1551 18.4165 14.7063C18.6542 14.3102 18.8918 13.8614 19.1294 13.4125ZM19.7367 22.5743C19.5255 22.7063 19.2614 22.7591 18.971 22.7591C17.6773 22.7591 16.0667 21.703 14.4826 20.1188C15.2482 19.3003 15.9875 18.3762 16.7268 17.3465C17.9677 17.2409 19.1558 17.0561 20.2647 16.7921C20.3967 17.2673 20.476 17.7426 20.5552 18.2178C20.9248 20.462 20.6344 22.0726 19.7367 22.5743ZM21.1096 8.66007C24.0667 9.50495 25.8357 10.7987 25.8357 11.9868C25.8357 13.0165 24.6212 14.0462 22.4826 14.8647C22.0601 15.0231 21.5849 15.1815 21.1096 15.3135C20.7664 14.231 20.3439 13.1221 19.8159 11.9868C20.3439 10.8515 20.7928 9.74257 21.1096 8.66007ZM18.9974 1.21452C19.2878 1.21452 19.5255 1.26733 19.7631 1.39934C20.6344 1.90099 20.9512 3.48515 20.5816 5.75578C20.5024 6.20462 20.3967 6.67987 20.2911 7.18152C19.1822 6.94389 17.9941 6.75908 16.7532 6.62706C16.0403 5.59736 15.2746 4.67327 14.509 3.85479C16.0931 2.29703 17.7037 1.21452 18.9974 1.21452ZM15.1162 6.52145C14.641 6.49505 14.1393 6.49505 13.6377 6.49505C13.136 6.49505 12.6344 6.49505 12.1591 6.52145C12.6344 5.88779 13.136 5.30693 13.6377 4.75248C14.1393 5.30693 14.641 5.91419 15.1162 6.52145ZM7.53866 1.39934C7.74989 1.26733 8.01391 1.21452 8.30434 1.21452C9.59807 1.21452 11.2086 2.27063 12.7928 3.85479C12.0271 4.67327 11.2878 5.59736 10.5486 6.62706C9.30764 6.73267 8.11952 6.91749 7.01061 7.18152C6.8786 6.70627 6.79939 6.23102 6.72018 5.75578C6.35054 3.51155 6.64097 1.92739 7.53866 1.39934ZM6.16573 15.3135C3.20863 14.4686 1.43965 13.1749 1.43965 11.9868C1.43965 10.9571 2.65418 9.92739 4.79279 9.10891C5.21523 8.95049 5.69048 8.79208 6.16573 8.66007C6.50896 9.74257 6.9314 10.8515 7.45946 11.9868C6.9314 13.1221 6.48256 14.2574 6.16573 15.3135ZM6.72018 18.2178C6.79939 17.769 6.905 17.2937 7.01061 16.7921C8.11952 17.0297 9.30764 17.2145 10.5486 17.3465C11.2614 18.3762 12.0271 19.3003 12.7928 20.1188C11.2086 21.6766 9.59807 22.7591 8.30434 22.7591C8.01391 22.7591 7.77629 22.7063 7.53866 22.5743C6.64097 22.0726 6.35054 20.462 6.72018 18.2178Z" fill="#222222"/>
  </g>
  <defs>
    <clipPath id="clip0_490_40728">
      <rect width="27" height="24" fill="white" transform="translate(0.19873)"/>
    </clipPath>
  </defs>
</svg>