<svg width="23" height="25" viewBox="0 0 23 25" fill="none" xmlns="http://www.w3.org/2000/svg">
<g id="logos:css-3" clip-path="url(#clip0_490_40718)">
<path id="Vector" d="M11.6402 24.0924L2.72373 21.684L0.736694 0H22.5704L20.5813 21.6807L11.6402 24.0924Z" fill="#222222"/>
<path id="Vector_2" d="M18.5911 20.5802L20.3117 1.50578H11.2771V22.5866L18.5911 20.5802Z" fill="#4C4949"/>
<path id="Vector_3" d="M4.98779 9.41551L5.22995 12.2075H11.2771V9.41551H4.98779ZM4.5011 3.76443L4.74673 6.55645H11.2771V3.76443H4.5011ZM11.2771 16.6667L11.2652 16.6699L8.25576 15.8303L8.06335 13.6036H5.35069L5.72924 17.9875L11.2646 19.5751L11.2771 19.5716V16.6667Z" fill="#EBEBEB"/>
<path id="Vector_4" d="M17.5648 9.41598L18.0531 3.76443H11.2772V6.55668H15.0887L14.8426 9.41598H11.2772V12.2082H14.608L14.294 15.8296L11.2771 16.6701V19.5751L16.8224 17.9886L16.8631 17.5169L17.4988 10.1658L17.5648 9.41598Z" fill="white"/>
</g>
<defs>
<clipPath id="clip0_490_40718">
<rect width="21.8337" height="24.0924" fill="white" transform="translate(0.736694)"/>
</clipPath>
</defs>
</svg>
