<svg width="24" height="24" viewBox="0 0 24 24" fill="none" xmlns="http://www.w3.org/2000/svg">
<g id="Property 1=iconGithubWhite" clip-path="url(#clip0_768_9501)">
<path id="Vector" d="M12.0004 2.99865e-09C9.15089 -6.36692e-05 6.39435 1.01387 4.22405 2.86035C2.05375 4.70684 0.611347 7.26536 0.154949 10.0781C-0.301449 12.8908 0.25795 15.7741 1.73304 18.2121C3.20813 20.6501 5.50264 22.4837 8.20597 23.3846C8.80597 23.4902 9.03037 23.1302 9.03037 22.8146C9.03037 22.5302 9.01597 21.5846 9.01597 20.5802C6.00035 21.1346 5.22034 19.8446 4.98034 19.1702C4.71411 18.5135 4.29194 17.9315 3.75033 17.4746C3.33032 17.2502 2.73032 16.6945 3.73473 16.6801C4.11859 16.7217 4.48677 16.8552 4.80806 17.0693C5.12934 17.2834 5.39426 17.5719 5.58034 17.9102C5.74442 18.205 5.96506 18.4645 6.22963 18.6739C6.49419 18.8833 6.79747 19.0384 7.1221 19.1304C7.44672 19.2224 7.7863 19.2494 8.12138 19.2099C8.45645 19.1703 8.78044 19.0651 9.07477 18.9002C9.12675 18.2898 9.39885 17.7192 9.84038 17.2946C7.17036 16.9945 4.38033 15.9601 4.38033 11.3701C4.36333 10.1773 4.80343 9.02313 5.61034 8.14447C5.24351 7.10792 5.28644 5.9704 5.73034 4.96444C5.73034 4.96444 6.73475 4.65004 9.03037 6.19445C10.9939 5.65439 13.0669 5.65439 15.0304 6.19445C17.3248 4.63444 18.3305 4.96444 18.3305 4.96444C18.7745 5.97037 18.8174 7.10794 18.4505 8.14447C19.2598 9.02162 19.7003 10.1768 19.6805 11.3701C19.6805 15.9745 16.8748 16.9945 14.2048 17.2946C14.4912 17.5848 14.7118 17.9333 14.8515 18.3164C14.9913 18.6994 15.047 19.1081 15.0148 19.5146C15.0148 21.1202 15.0004 22.4102 15.0004 22.8146C15.0004 23.1302 15.2248 23.5046 15.8248 23.3846C18.5232 22.4761 20.8109 20.6382 22.2795 18.1991C23.7481 15.7599 24.3021 12.8782 23.8426 10.0683C23.383 7.25846 21.9399 4.70336 19.7707 2.85912C17.6016 1.01488 14.8476 0.00154809 12.0004 2.99865e-09Z" fill="#F8F8F8"/>
</g>
<defs>
<clipPath id="clip0_768_9501">
<rect width="24" height="24" fill="white"/>
</clipPath>
</defs>
</svg>
